<svg xmlns="http://www.w3.org/2000/svg" width="1200" height="630" viewBox="0 0 1200 630">
  <defs>
    <linearGradient id="bg" x1="0%" y1="0%" x2="100%" y2="100%">
      <stop offset="0%" style="stop-color:#4f46e5"/>
      <stop offset="50%" style="stop-color:#ec4899"/>
      <stop offset="100%" style="stop-color:#f97316"/>
    </linearGradient>
    <linearGradient id="shine" x1="0%" y1="0%" x2="0%" y2="100%">
      <stop offset="0%" style="stop-color:rgba(255,255,255,0.2)"/>
      <stop offset="100%" style="stop-color:rgba(255,255,255,0)"/>
    </linearGradient>
  </defs>

  <!-- Background -->
  <rect width="1200" height="630" fill="url(#bg)" rx="0"/>
  <rect width="1200" height="315" fill="url(#shine)" rx="0"/>

  <!-- Shield icon -->
  <g transform="translate(540, 60) scale(0.28)">
    <path
      d="M256 32 L448 112 L448 240 C448 360 360 456 256 480 C152 456 64 360 64 240 L64 112 Z"
      fill="white"
      opacity="0.95"
    />
    <g fill="#4f46e5" fill-rule="evenodd">
      <path d="M120 310 V168 H218 C256 168 268 190 268 216 C268 242 256 258 218 258 H168 V310 Z M168 200 H212 C230 200 236 210 236 216 C236 224 230 232 212 232 H168 Z"/>
      <path d="M392 198 C376 178 358 168 334 168 C282 168 270 198 270 240 C270 282 282 312 334 312 C358 312 376 302 392 282 V240 H340 V268 C336 276 335 280 334 280 C302 280 296 264 296 240 C296 216 302 200 334 200 C346 200 360 206 376 214 Z"/>
    </g>
  </g>

  <!-- Title -->
  <text x="600" y="270" text-anchor="middle" font-family="Arial, sans-serif" font-size="64" font-weight="900" fill="white">PG Patrol</text>

  <!-- Tagline -->
  <text x="600" y="340" text-anchor="middle" font-family="Arial, sans-serif" font-size="30" fill="rgba(255,255,255,0.9)">Let them explore. We'll keep it clean.</text>

  <!-- Features row -->
  <text x="600" y="420" text-anchor="middle" font-family="Arial, sans-serif" font-size="22" fill="rgba(255,255,255,0.8)">Profanity Filter  &#x2022;  NSFW Image Blocker  &#x2022;  Good Vibes Mode</text>

  <!-- Bottom bar -->
  <rect x="0" y="530" width="1200" height="100" fill="rgba(0,0,0,0.15)"/>
  <text x="600" y="580" text-anchor="middle" font-family="Arial, sans-serif" font-size="20" fill="rgba(255,255,255,0.8)">Free &amp; Open Source  &#x2022;  100% On-Device AI  &#x2022;  Chrome, Firefox, Edge, Brave, Opera, Arc</text>
</svg>
